# xmcd
#
# Track frame offsets: 
#        150
#        35638
#        52184
#        64569
#        89523
#        109140
#        125962
#        156808
#        175354
#        189387
#        220904
#        239036
#
# Disc length: 3315 seconds
#
# Revision: 0
# Processed by: cddbd v1.5.2PL0 Copyright (c) Steve Scherf et al.
# Submitted via: ExactAudioCopy v1.0b3
#
DISCID=b80cf10c
DTITLE=Haydn, Joseph - Klaviertrios - CD 4 (Haydn Trio Eisenstadt)
DYEAR=2007
DGENRE=Klaviertrio
TTITLE0=Klaviertrio D-dur Hob.XV:24 - Allegro
TTITLE1=Klaviertrio D-dur Hob.XV:24 - Andante
TTITLE2=Klaviertrio D-dur Hob.XV:24 - Allegro ma dolce
TTITLE3=Klaviertrio A-dur Hob.XV:35 - Capriccio
TTITLE4=Klaviertrio A-dur Hob.XV:35 - Menuet
TTITLE5=Klaviertrio A-dur Hob.XV:35 - Finale
TTITLE6=Klaviertrio D-dur Hob.XV:7 - Andante
TTITLE7=Klaviertrio D-dur Hob.XV:7 - Andante
TTITLE8=Klaviertrio D-dur Hob.XV:7 - Allegro assai
TTITLE9=Klaviertrio g-moll Hob.XV:1 - Moderato
TTITLE10=Klaviertrio g-moll Hob.XV:1 - Menuet
TTITLE11=Klaviertrio g-moll Hob.XV:1 - Presto
EXTD=
EXTT0=
EXTT1=
EXTT2=
EXTT3=
EXTT4=
EXTT5=
EXTT6=
EXTT7=
EXTT8=
EXTT9=
EXTT10=
EXTT11=
PLAYORDER=
